<?xml version="1.0" encoding="utf-8"?>
<!-- Generator: Adobe Illustrator 27.0.0, SVG Export Plug-In . SVG Version: 6.00 Build 0)  -->
<svg version="1.1" id="Layer_1" xmlns="http://www.w3.org/2000/svg" xmlns:xlink="http://www.w3.org/1999/xlink" x="0px" y="0px"
	 viewBox="0 0 746 134.2" style="enable-background:new 0 0 746 134.2;" xml:space="preserve">
<style type="text/css">
	.st0{fill:#4D5D6D;}
	.st1{fill:none;stroke:#4D5D6D;stroke-width:2;stroke-miterlimit:10;}
	.st2{fill:#4F5B6C;}
	.st3{fill:#4F5B6D;}
</style>
<g>
	<circle class="st0" cx="51.7" cy="69" r="23.1"/>
	<line class="st1" x1="51.6" y1="69.7" x2="9" y2="27.2"/>
	<line class="st1" x1="52.2" y1="69.5" x2="77" y2="14.7"/>
	<line class="st1" x1="107.7" y1="91.3" x2="51.5" y2="69.7"/>
	<line class="st1" x1="79.2" y1="123.7" x2="52.2" y2="69.9"/>
	<line class="st1" x1="18.1" y1="118.1" x2="52.2" y2="68.4"/>
	<circle class="st0" cx="8.5" cy="26.6" r="8.5"/>
	<circle class="st0" cx="104.7" cy="90.1" r="7.7"/>
	<circle class="st0" cx="76.5" cy="15.8" r="14.2"/>
	<circle class="st0" cx="79" cy="123.3" r="10.9"/>
	<circle class="st0" cx="19.3" cy="116.3" r="14.7"/>
</g>
<path class="st2" d="M166.1,1.3h17.4v74.8h-17.4V1.3z"/>
<path class="st2" d="M262.3,1.3v74.8H248l-37.3-45.5v45.5h-17.1V1.3h14.3l37.2,45.5V1.3H262.3z"/>
<path class="st2" d="M288,15.5h-23.9V1.3h65.2v14.1h-23.9v60.7H288V15.5z"/>
<path class="st2" d="M389.1,62.2v13.9h-58V1.3h56.6v13.9h-39.3v16.3h34.8v13.4h-34.8v17.4H389.1L389.1,62.2z"/>
<path class="st2" d="M445.7,37.6h15.8v30.3c-8.2,6.2-19.6,9.5-30.3,9.5c-23.5,0-40.9-16.1-40.9-38.7S407.7,0,431.6,0
	c13.2,0,24.1,4.5,31.3,12.9l-11.1,10.3c-5.4-5.8-11.8-8.5-19.3-8.5c-14.6,0-24.5,9.7-24.5,23.9s9.9,23.9,24.3,23.9
	c4.7,0,9-0.8,13.5-3.2V37.6L445.7,37.6L445.7,37.6z"/>
<path class="st2" d="M517.7,76.1l-14.5-20.9h-15.9v20.9h-17.4V1.3h32.4c20,0,32.5,10.4,32.5,27.1c0,11.3-5.7,19.5-15.4,23.6
	l16.8,24.1H517.7L517.7,76.1z M501.5,15.5h-14.1v26.1h14.1c10.6,0,16-4.9,16-13.1C517.4,20.2,512.1,15.5,501.5,15.5L501.5,15.5z"/>
<path class="st2" d="M599.1,62.2v13.9h-58V1.3h56.6v13.9h-39.3v16.3h34.8v13.4h-34.8v17.4H599.1z"/>
<path class="st2" d="M663.2,60.1h-34.8l-6.6,16h-17.8l33.4-74.8h17.1L688,76.1h-18.2L663.2,60.1L663.2,60.1z M663.2,60.1l-17.4-41.8
	l-17.4,41.8H663.2z"/>
<path class="st2" d="M700.1,15.5h-23.9V1.3h65.2v14.1h-23.9v60.7h-17.4L700.1,15.5L700.1,15.5L700.1,15.5z"/>
<g>
	<path class="st3" d="M165.4,113.7c0-11.7,8.9-20.5,20.9-20.5c5.8,0,10.9,1.8,14.3,5.6l-1.8,2c-3.4-3.4-7.8-4.8-12.3-4.8
		c-10.3,0-18.1,7.6-18.1,17.7c0,10.1,7.8,17.7,18.1,17.7c4.8,0,8.9-1.4,12.3-4.8l1.8,2c-3.6,3.8-8.7,5.6-14.3,5.6
		C174.3,134.2,165.4,125.5,165.4,113.7z"/>
	<path class="st3" d="M209.3,113.7c0-11.7,8.9-20.5,21.1-20.5c11.9,0,21.1,8.7,21.1,20.5c0,11.7-9.1,20.5-21.3,20.5
		C218.3,134.2,209.3,125.5,209.3,113.7z M248.3,113.7c0-10.1-7.8-17.7-17.9-17.7c-10.3,0-18.1,7.6-18.1,17.7s7.8,17.7,18.1,17.7
		C240.5,131.4,248.3,123.9,248.3,113.7z"/>
	<path class="st3" d="M297.8,93.4v40.4h-2.4l-27.4-35v35h-3V93.4h2.4l27.4,35v-35C294.8,93.4,297.8,93.4,297.8,93.4z"/>
	<path class="st3" d="M348.1,93.4v40.4h-2.4l-27.4-35v35h-3V93.4h2.4l27.4,35v-35C345.1,93.4,348.1,93.4,348.1,93.4z"/>
	<path class="st3" d="M393.6,131.2v2.6h-27.8V93.4h27V96h-24.1v15.9h21.5v2.6h-21.5V131h24.8V131.2z"/>
	<path class="st3" d="M403.6,113.7c0-11.7,8.9-20.5,20.9-20.5c5.8,0,10.9,1.8,14.3,5.6l-1.8,2c-3.4-3.4-7.8-4.8-12.3-4.8
		c-10.3,0-18.1,7.6-18.1,17.7c0,10.1,7.8,17.7,18.1,17.7c4.8,0,8.9-1.4,12.3-4.8l1.8,2c-3.6,3.8-8.7,5.6-14.3,5.6
		C412.5,134.2,403.6,125.5,403.6,113.7z"/>
	<path class="st3" d="M459.4,96.2h-14.5v-2.6h32v2.6h-14.5V134h-3L459.4,96.2L459.4,96.2z"/>
	<path class="st3" d="M505.9,93.4h3v40.4h-3V93.4z"/>
	<path class="st3" d="M534.2,96.2h-14.5v-2.6h32v2.6h-14.5V134h-3L534.2,96.2L534.2,96.2z"/>
	<path class="st3" d="M605.5,122.5h-23.5l-5.2,11.3h-3.2l18.5-40.4h3l18.5,40.4h-3.2L605.5,122.5z M604.4,120.1l-10.5-23.3
		l-10.5,23.3H604.4z"/>
	<path class="st3" d="M624.6,93.4h3v37.8h23.3v2.6h-26.2V93.4z"/>
	<path class="st3" d="M661.8,93.4h3v37.8H688v2.6h-26.2V93.4z"/>
</g>
</svg>
